<svg width="196" height="70" viewBox="0 0 196 70" fill="none" xmlns="http://www.w3.org/2000/svg">
<path d="M15.912 69.96C10.792 69.96 6.888 68.52 4.2 65.64C1.512 62.696 0.168 58.504 0.168 53.064V17.736C0.168 12.296 1.512 8.136 4.2 5.256C6.888 2.312 10.792 0.839996 15.912 0.839996C21.032 0.839996 24.936 2.312 27.624 5.256C30.312 8.136 31.656 12.296 31.656 17.736V23.496H21.672V17.064C21.672 12.648 19.848 10.44 16.2 10.44C12.552 10.44 10.728 12.648 10.728 17.064V53.832C10.728 58.184 12.552 60.36 16.2 60.36C19.848 60.36 21.672 58.184 21.672 53.832V40.68H16.392V31.08H31.656V53.064C31.656 58.504 30.312 62.696 27.624 65.64C24.936 68.52 21.032 69.96 15.912 69.96ZM46.7258 40.392L33.9578 1.8H45.1898L52.3898 26.472H52.5818L59.7818 1.8H70.0538L57.2858 40.392V69H46.7258V40.392ZM74.811 1.8H89.883L96.603 49.896H96.795L103.515 1.8H118.587V69H108.603V18.12H108.411L100.731 69H91.899L84.219 18.12H84.027V69H74.811V1.8ZM126.467 1.8H155.267V11.4H137.027V29.16H151.523V38.76H137.027V59.4H155.267V69H126.467V1.8ZM170.842 34.632L159.226 1.8H170.362L177.466 23.496H177.658L184.954 1.8H194.938L183.322 34.632L195.514 69H184.378L176.698 45.576H176.506L168.634 69H158.65L170.842 34.632Z" fill="#324B40"/>
</svg>
